<svg xmlns="http://www.w3.org/2000/svg" width="160" height="160" viewBox="0 0 160 160" role="img" aria-label="Real Vibe AI Studio">
  <defs>
    <linearGradient id="bg" x1="18%" y1="12%" x2="82%" y2="88%">
      <stop offset="0%" stop-color="#ff9b4a"/>
      <stop offset="46%" stop-color="#a642ff"/>
      <stop offset="100%" stop-color="#33f5c8"/>
    </linearGradient>
    <radialGradient id="glow" cx="30%" cy="30%" r="70%">
      <stop offset="0%" stop-color="rgba(255,255,255,0.35)"/>
      <stop offset="48%" stop-color="rgba(255,255,255,0.08)"/>
      <stop offset="100%" stop-color="rgba(255,255,255,0)"/>
    </radialGradient>
  </defs>
  <circle cx="80" cy="80" r="66" fill="url(#bg)"/>
  <circle cx="80" cy="80" r="66" fill="url(#glow)"/>
  <circle cx="80" cy="80" r="62" fill="none" stroke="rgba(255,255,255,0.26)" stroke-width="3"/>
  <path d="M38 112V48h36c17 0 27 9 27 23 0 14-9 23-24 23H56v18zm18-34h16c7 0 11-4 11-9s-4-9-11-9H56z" fill="#fff"/>
  <path d="M92 48h18l12 38 12-38h18l-22 64h-16z" fill="#fff"/>
</svg>
